<svg width="558" height="558" viewBox="0 0 558 558" fill="none" xmlns="http://www.w3.org/2000/svg">
<path d="M279 0C433.087 0 558 124.913 558 279C558 346.011 534.374 407.503 495 455.604V213L494.985 213.005C494.843 204.867 492.731 196.667 488.479 189.159C475.064 165.478 445.011 156.829 421.114 170.481L420.551 170.808L294.215 245.15C284.824 250.676 273.175 250.676 263.785 245.15L137.45 170.808C113.649 156.802 83.515 165.16 69.8408 188.603L69.5205 189.159C65.2679 196.667 63.1554 204.867 63.0137 213.005L63 213L63 455.604C23.6256 407.503 0 346.011 0 279C0 124.913 124.913 0 279 0Z" fill="#616161"/>
<path d="M93.8834 202.96C99.8198 192.48 112.968 188.888 123.25 194.939L249.585 269.282C267.74 279.966 290.261 279.966 308.416 269.282L434.751 194.94C445.033 188.89 458.18 192.48 464.116 202.96C470.053 213.439 466.53 226.84 456.248 232.891L328.692 307.952C310.981 318.374 300.107 337.39 300.107 357.939V508.589C300.107 520.69 290.482 530.5 278.61 530.5C266.737 530.5 257.112 520.69 257.112 508.589V357.479C257.112 336.93 246.239 317.914 228.528 307.492L101.753 232.89C91.4706 226.84 87.9474 213.439 93.8834 202.96Z" fill="#616161"/>
</svg>
