<svg width="558" height="545" viewBox="0 0 558 545" fill="none" xmlns="http://www.w3.org/2000/svg">
<path d="M476.284 74.7103C585.24 183.667 585.24 360.32 476.284 469.276C444.897 500.663 407.892 523.007 368.506 536.31C358.19 539.795 350.285 528.362 356.459 519.393L414.156 435.567C421.82 424.433 408.085 411.095 397.181 419.082L228.669 542.513C225.958 544.498 222.534 545.27 219.251 544.553C212.103 542.993 205.005 541.15 197.974 539.023C189.029 536.317 187.314 524.804 194.717 519.099L372.378 382.175C383.084 373.924 374.096 357.02 361.269 361.283L78.3364 455.307C73.7972 456.816 68.7774 455.499 65.69 451.846C60.2629 445.424 55.1712 438.815 50.4167 432.042C45.9485 425.676 49.1126 416.959 56.5003 414.528L345.086 319.563C357.924 315.338 355.063 296.408 341.549 296.166L11.6336 290.271C5.38974 290.159 0.246002 285.277 0.0892303 279.034C0.0116013 275.943 -0.014717 272.851 0.00981891 269.758C0.0601134 263.438 5.2371 258.442 11.5569 258.329L341.549 252.434C355.063 252.192 357.924 233.261 345.085 229.036L53.9101 133.216C46.5988 130.81 43.4044 122.232 47.7181 115.857C52.5414 108.73 57.7311 101.776 63.2855 95.0223C66.3597 91.2844 71.4386 89.9177 76.0314 91.444L361.27 186.234C374.096 190.497 383.085 173.593 372.38 165.342L191.458 25.9047C184.105 20.2379 185.736 8.81005 194.586 6.00905C201.463 3.83249 208.409 1.92894 215.405 0.298336C218.734 -0.477502 222.226 0.284421 224.984 2.30434L397.18 128.435C408.084 136.422 421.819 123.084 414.155 111.95L353.346 23.6011C347.208 14.6821 355.002 3.2733 365.302 6.61327C405.884 19.7742 444.047 42.4736 476.284 74.7103Z" fill="white"/>
</svg>
